<?xml version="1.0" encoding="utf-8"?>
<!-- Generator: Adobe Illustrator 16.0.3, SVG Export Plug-In . SVG Version: 6.00 Build 0)  -->
<!DOCTYPE svg PUBLIC "-//W3C//DTD SVG 1.1//EN" "http://www.w3.org/Graphics/SVG/1.1/DTD/svg11.dtd">
<svg version="1.1" id="Layer_1" xmlns="http://www.w3.org/2000/svg" xmlns:xlink="http://www.w3.org/1999/xlink" x="0px" y="0px"
	 width="245.217px" height="245.217px" viewBox="0 0 245.217 245.217" enable-background="new 0 0 245.217 245.217"
	 xml:space="preserve">
<rect fill="#414042" width="245.217" height="245.217"/>
<path fill="#00AEEF" d="M88.22,90.465c-6.849,8.609-10.672,18.34-10.672,31.432c0,26.307,19.908,48.111,46.689,48.111
	c11.139,0,23.227-4.029,31.758-11.376c1.659-1.422,4.74-1.422,6.162,0.236l18.486,19.671c1.658,1.659,1.422,4.74-0.237,6.399
	c-16.116,15.641-36.498,22.989-57.591,22.989c-47.4,0-85.557-37.683-85.557-85.083c0-24.283,9.196-43.271,23.907-59.436
	L88.22,90.465z"/>
<path opacity="0.06" fill="#FFFFFF" d="M186.954,67.407c12.352,13.646,21.005,32.802,21.005,52.821
	c0,22.048-8.648,42.335-22.005,57.012l-23.167-24.667c6.219-7.816,8.591-19.598,8.591-31.484c0-9.817-3.639-20.504-8.924-27.849
	L186.954,67.407z"/>
<path fill="#FFFFFF" d="M65.092,59.589c15.194-13.864,35.437-22.3,57.724-22.3c23.699,0,41.238,7.347,57.354,22.041
	c2.133,1.896,2.133,4.739,0.237,6.636L161.92,85.163c-1.659,1.658-4.266,1.658-5.925,0c-8.77-7.821-20.382-12.088-31.995-12.088
	c-12.79,0-23.959,5.082-32.137,13.283L65.092,59.589z"/>
<text transform="matrix(1 0 0 1 35.9175 644.6709)" fill="#FFFFFF" font-family="'BrandonGrotesque-Black'" font-size="237">C</text>
<text transform="matrix(1 0 0 1 400.665 377.873)" fill="#FFFFFF" font-family="'BrandonGrotesque-Black'" font-size="33.5285">CINELOGUE</text>
<line fill="none" stroke="#00AEEF" stroke-width="2" stroke-miterlimit="10" x1="353.725" y1="107.299" x2="392.225" y2="145.799"/>
</svg>
