<?xml version="1.0" encoding="utf-8"?>
<!-- Generator: Adobe Illustrator 16.0.3, SVG Export Plug-In . SVG Version: 6.00 Build 0)  -->
<!DOCTYPE svg PUBLIC "-//W3C//DTD SVG 1.1//EN" "http://www.w3.org/Graphics/SVG/1.1/DTD/svg11.dtd">
<svg version="1.1" id="Layer_1" xmlns="http://www.w3.org/2000/svg" xmlns:xlink="http://www.w3.org/1999/xlink" x="0px" y="0px"
	 width="13.25px" height="28.208px" viewBox="0 0 13.25 28.208" enable-background="new 0 0 13.25 28.208" xml:space="preserve">
<rect x="-411.5" y="-379.667" display="none" fill="#00AEEF" width="612" height="792"/>
<path id="Facebook_3_" fill="#FFFFFF" d="M2.945,5.574c0,0.697,0,3.807,0,3.807H0.156v4.656h2.789v13.837h5.731V14.037h3.844
	c0,0,0.362-2.23,0.535-4.673c-0.501,0-4.357,0-4.357,0s0-2.708,0-3.185c0-0.474,0.624-1.114,1.241-1.114s1.918,0,3.123,0
	c0-0.634,0-2.823,0-4.848c-1.609,0-3.439,0-4.246,0C2.805,0.218,2.945,4.878,2.945,5.574z"/>
<path id="Twitter__x28_alt_x29__2_" fill="#FFFFFF" d="M-92.137,12.825c1.799-0.149,3.018-0.967,3.49-2.076
	c-0.65,0.398-2.665,0.832-3.775,0.42c-0.057-0.262-0.115-0.512-0.178-0.732c-0.848-3.113-3.748-5.622-6.787-5.319
	c0.244-0.099,0.495-0.19,0.743-0.271c0.335-0.121,2.298-0.441,1.987-1.133c-0.26-0.612-2.656,0.459-3.109,0.598
	c0.597-0.222,1.583-0.608,1.688-1.295c-0.912,0.126-1.81,0.559-2.502,1.187c0.25-0.27,0.438-0.598,0.48-0.95
	c-2.438,1.556-3.862,4.694-5.014,7.737c-0.903-0.876-1.705-1.567-2.425-1.95c-2.017-1.081-4.429-2.21-8.214-3.614
	c-0.117,1.252,0.617,2.919,2.738,4.024c-0.461-0.06-1.3,0.075-1.971,0.236c0.273,1.435,1.166,2.619,3.586,3.19
	c-1.105,0.072-1.676,0.324-2.195,0.866c0.505,0.997,1.732,2.171,3.941,1.932c-2.455,1.059-1,3.021,0.998,2.728
	c-3.41,3.522-8.789,3.265-11.877,0.319c8.064,10.986,25.59,6.496,28.203-4.086c1.957,0.017,3.105-0.679,3.82-1.445
	C-89.635,13.382-91.27,13.186-92.137,12.825z"/>
<path id="Google_3_" fill="#FFFFFF" d="M-202.582,1.496h-8.41c-2.204,0-4.98,0.328-7.307,2.24c-1.758,1.509-2.612,3.59-2.612,5.466
	c0,3.181,2.45,6.403,6.777,6.403c0.409,0,0.855-0.04,1.308-0.079c-0.204,0.486-0.411,0.893-0.411,1.588
	c0,1.264,0.653,2.038,1.224,2.772c-1.834,0.123-5.265,0.328-7.796,1.876c-2.409,1.43-3.146,3.508-3.146,4.978
	c0,3.018,2.859,5.833,8.78,5.833c7.02,0,10.736-3.874,10.736-7.713c0-2.809-1.633-4.199-3.428-5.708l-1.471-1.142
	c-0.447-0.367-1.06-0.857-1.06-1.754c0-0.893,0.613-1.469,1.142-1.998c1.715-1.344,3.431-2.773,3.431-5.791
	c0-3.097-1.963-4.731-2.901-5.506h2.533L-202.582,1.496z M-206.172,26.455c0,2.528-2.084,4.4-6.003,4.4
	c-4.366,0-7.184-2.077-7.184-4.973c0-2.898,2.612-3.875,3.509-4.199c1.716-0.572,3.919-0.655,4.287-0.655
	c0.409,0,0.615,0,0.94,0.043C-207.52,23.272-206.172,24.374-206.172,26.455z M-209.438,13.322c-0.653,0.651-1.757,1.142-2.778,1.142
	c-3.509,0-5.101-4.526-5.101-7.26c0-1.059,0.205-2.161,0.896-3.018c0.654-0.814,1.796-1.347,2.857-1.347
	c3.389,0,5.146,4.569,5.146,7.504C-208.418,11.079-208.5,12.383-209.438,13.322z"/>
</svg>
