<?xml version="1.0" encoding="utf-8"?>
<!-- Generator: Adobe Illustrator 16.0.3, SVG Export Plug-In . SVG Version: 6.00 Build 0)  -->
<!DOCTYPE svg PUBLIC "-//W3C//DTD SVG 1.1//EN" "http://www.w3.org/Graphics/SVG/1.1/DTD/svg11.dtd">
<svg version="1.1" id="Layer_1" xmlns="http://www.w3.org/2000/svg" xmlns:xlink="http://www.w3.org/1999/xlink" x="0px" y="0px"
	 width="21.848px" height="21.32px" viewBox="0 0 21.848 21.32" enable-background="new 0 0 21.848 21.32" xml:space="preserve">
<g>
	<path fill-rule="evenodd" clip-rule="evenodd" fill="#231F20" d="M7.572,1.027c0.613,0.058,1.2,0.211,1.743,0.445l0.503-0.871
		l1.127,0.651l-0.5,0.866c0.489,0.357,0.92,0.79,1.276,1.28l0.868-0.501l0.65,1.127l-0.877,0.506c0.232,0.542,0.384,1.127,0.44,1.74
		h1.039v1.302h-1.064C12.699,8.17,12.53,8.74,12.283,9.266l0.957,0.553l-0.65,1.127l-0.987-0.57
		c-0.354,0.455-0.776,0.856-1.249,1.188l0.592,1.026l-1.127,0.651L9.21,12.188c-0.514,0.209-1.063,0.347-1.638,0.401v1.253H6.271
		v-1.276c-0.563-0.073-1.1-0.226-1.6-0.447l-0.647,1.122L2.896,12.59l0.651-1.128c-0.442-0.331-0.837-0.725-1.169-1.167l-1.127,0.65
		l-0.65-1.127l1.116-0.645C1.493,8.673,1.339,8.136,1.265,7.572H0V6.271h1.239c0.053-0.578,0.19-1.131,0.4-1.647L0.602,4.024
		l0.65-1.127L2.263,3.48c0.333-0.477,0.736-0.9,1.194-1.257L2.896,1.252l1.127-0.651l0.544,0.942
		c0.529-0.247,1.102-0.417,1.703-0.495V0h1.302V1.027L7.572,1.027z M7.021,1.552c-2.902,0-5.257,2.354-5.257,5.256
		s2.354,5.256,5.257,5.256s5.256-2.354,5.256-5.256S9.924,1.552,7.021,1.552z"/>
	<g>
		<path fill-rule="evenodd" clip-rule="evenodd" fill="#231F20" d="M18.061,11.384c0.464,0.17,0.887,0.41,1.261,0.702l0.567-0.572
			l0.741,0.735l-0.565,0.569c0.306,0.377,0.552,0.801,0.728,1.254l0.775-0.211l0.274,1.007l-0.784,0.213
			c0.068,0.468,0.066,0.953-0.016,1.439l0.806,0.213l-0.266,1.009l-0.825-0.218c-0.184,0.448-0.433,0.854-0.731,1.212l0.629,0.625
			l-0.735,0.741l-0.648-0.644c-0.368,0.28-0.777,0.505-1.212,0.665l0.249,0.917l-1.007,0.274l-0.256-0.941
			c-0.441,0.057-0.896,0.051-1.353-0.024l-0.257,0.972l-1.009-0.267l0.261-0.99c-0.421-0.171-0.806-0.4-1.147-0.674l-0.731,0.736
			l-0.741-0.735l0.736-0.742c-0.276-0.348-0.501-0.733-0.668-1.144l-1.007,0.273l-0.273-1.007l0.997-0.271
			c-0.071-0.434-0.081-0.883-0.022-1.335l-0.981-0.259l0.267-1.009l0.961,0.254c0.159-0.437,0.38-0.838,0.648-1.195l-0.683-0.677
			l0.735-0.741l0.664,0.659c0.356-0.301,0.756-0.547,1.184-0.729l-0.235-0.868l1.007-0.273l0.229,0.842
			c0.461-0.083,0.939-0.098,1.422-0.035l0.215-0.813l1.009,0.267L18.061,11.384L18.061,11.384z M17.525,11.678
			c-2.25-0.594-4.557,0.749-5.151,2.999s0.748,4.557,2.999,5.152c2.25,0.594,4.558-0.749,5.151-2.999
			C21.119,14.579,19.776,12.272,17.525,11.678z"/>
		<circle fill-rule="evenodd" clip-rule="evenodd" fill="#231F20" cx="16.45" cy="15.753" r="3.252"/>
	</g>
	<path fill-rule="evenodd" clip-rule="evenodd" fill="#231F20" d="M7.02,10.847c2.226,0,4.04-1.814,4.04-4.039
		c0-2.225-1.814-4.04-4.04-4.04c-2.225,0-4.039,1.815-4.039,4.04C2.98,9.033,4.795,10.847,7.02,10.847z"/>
</g>
</svg>
